<svg width="486" height="454" viewBox="0 0 486 454" fill="none" xmlns="http://www.w3.org/2000/svg">
<ellipse cx="416.5" cy="130.5" rx="57.5" ry="64.5" fill="#EE9769"/>
<ellipse cx="49.1908" cy="67.3679" rx="49.1908" ry="67.3679" transform="matrix(0.967639 0.252338 -0.196878 0.980428 390.526 66)" fill="#FFF2E5"/>
<ellipse cx="57.5" cy="64.5" rx="57.5" ry="64.5" transform="matrix(-1 0 0 1 126.724 66)" fill="#EE9769"/>
<ellipse cx="49.1908" cy="67.3679" rx="49.1908" ry="67.3679" transform="matrix(-0.967639 0.252338 0.196878 0.980428 95.198 66)" fill="#FFF2E5"/>
<path d="M486 273C486 325.102 472.152 366.59 429.754 400.5C388.11 433.806 309.486 453.5 246.371 453.5C183.256 453.5 102.196 433.806 60.5522 400.5C18.1544 366.59 6 325.102 6 273C6 169.723 118.998 66 246.371 66C373.744 66 486 169.723 486 273Z" fill="#EE9769"/>
<mask id="mask0_86_63" style="mask-type:alpha" maskUnits="userSpaceOnUse" x="6" y="66" width="480" height="388">
<path d="M486 273C486 325.102 472.152 366.59 429.754 400.5C388.11 433.806 309.486 453.5 246.371 453.5C183.256 453.5 102.196 433.806 60.5522 400.5C18.1544 366.59 6 325.102 6 273C6 169.723 118.998 66 246.371 66C373.744 66 486 169.723 486 273Z" fill="#EE9769"/>
</mask>
<g mask="url(#mask0_86_63)">
<path d="M308.499 218C283.499 218 259.8 293.579 260.001 337L290.451 380.864C290.451 380.864 302.517 276.789 357.999 298.5C413.48 320.211 415.889 466.5 415.889 466.5H480.416L536.501 294.022L514.188 236.73C497.503 248.39 483.718 267.763 448.499 275C404.475 284.046 377.851 218 308.499 218Z" fill="#FFF2E5"/>
<path d="M184.003 218C209.003 218 232.701 293.579 232.5 337L202.05 380.864C202.05 380.864 189.984 276.789 134.503 298.5C79.0207 320.211 76.6127 466.5 76.6127 466.5H12.0849L-44.0001 294.022L-21.6867 236.73C-5.00194 248.39 8.78365 267.763 44.0026 275C88.0262 284.046 114.65 218 184.003 218Z" fill="#FFF2E5"/>
</g>
<mask id="mask1_86_63" style="mask-type:alpha" maskUnits="userSpaceOnUse" x="6" y="66" width="480" height="388">
<path d="M486 273C486 325.102 472.152 366.59 429.754 400.5C388.11 433.806 309.486 453.5 246.371 453.5C183.256 453.5 102.196 433.806 60.5522 400.5C18.1544 366.59 6 325.102 6 273C6 169.723 118.998 66 246.371 66C373.744 66 486 169.723 486 273Z" fill="#EE9769"/>
</mask>
<g mask="url(#mask1_86_63)">
<path d="M245.5 313C306.043 313 355 358.732 355 415C355 471.268 306.043 517 245.5 517C184.957 517 136 471.268 136 415C136 358.732 184.957 313 245.5 313Z" fill="#FFF2E5" stroke="#EE9769" stroke-width="2"/>
</g>
<ellipse cx="246" cy="351.5" rx="29" ry="23.5" fill="black"/>
<path d="M246.5 375V401.5C227.167 408.667 186.6 419.6 179 406" stroke="black"/>
<path d="M246.5 375V401.5C265.833 408.667 306.4 419.6 314 406" stroke="black"/>
<path d="M247.124 427C217.494 427 196 413 196 413C231.5 409 239 404.5 246.5 401.5C262.5 406.5 274.5 413 296 413C296 413 276.753 427 247.124 427Z" fill="black" stroke="black"/>
<path d="M232.92 12V5.45455H233.892V6.44318H233.96C234.08 6.11932 234.295 5.85653 234.608 5.65483C234.92 5.45312 235.273 5.35227 235.665 5.35227C235.739 5.35227 235.831 5.35369 235.942 5.35653C236.053 5.35937 236.136 5.36364 236.193 5.36932V6.39205C236.159 6.38352 236.081 6.37074 235.959 6.35369C235.839 6.33381 235.713 6.32386 235.58 6.32386C235.261 6.32386 234.977 6.39062 234.727 6.52415C234.48 6.65483 234.284 6.83665 234.139 7.0696C233.997 7.29972 233.926 7.5625 233.926 7.85795V12H232.92ZM241.51 9.32386V5.45455H242.516V12H241.51V10.892H241.442C241.289 11.2244 241.05 11.5071 240.726 11.7401C240.402 11.9702 239.993 12.0852 239.499 12.0852C239.09 12.0852 238.726 11.9957 238.408 11.8168C238.09 11.6349 237.84 11.3622 237.658 10.9986C237.476 10.6321 237.385 10.1705 237.385 9.61364V5.45455H238.391V9.54545C238.391 10.0227 238.525 10.4034 238.792 10.6875C239.061 10.9716 239.405 11.1136 239.823 11.1136C240.073 11.1136 240.327 11.0497 240.586 10.9219C240.847 10.794 241.066 10.598 241.242 10.3338C241.421 10.0696 241.51 9.73295 241.51 9.32386ZM245.364 8.0625V12H244.358V5.45455H245.33V6.47727H245.415C245.568 6.14489 245.801 5.87784 246.114 5.67614C246.426 5.47159 246.83 5.36932 247.324 5.36932C247.767 5.36932 248.155 5.46023 248.487 5.64205C248.82 5.82102 249.078 6.09375 249.263 6.46023C249.447 6.82386 249.54 7.28409 249.54 7.84091V12H248.534V7.90909C248.534 7.39489 248.401 6.99432 248.134 6.70739C247.866 6.41761 247.5 6.27273 247.034 6.27273C246.713 6.27273 246.426 6.34233 246.173 6.48153C245.923 6.62074 245.726 6.82386 245.581 7.09091C245.436 7.35795 245.364 7.68182 245.364 8.0625ZM254.122 12.1364C253.491 12.1364 252.947 11.9972 252.49 11.7188C252.035 11.4375 251.684 11.0455 251.437 10.5426C251.193 10.0369 251.071 9.44886 251.071 8.77841C251.071 8.10795 251.193 7.51705 251.437 7.00568C251.684 6.49148 252.028 6.09091 252.468 5.80398C252.912 5.5142 253.429 5.36932 254.02 5.36932C254.36 5.36932 254.697 5.42614 255.029 5.53977C255.362 5.65341 255.664 5.83807 255.937 6.09375C256.21 6.34659 256.427 6.68182 256.589 7.09943C256.751 7.51705 256.832 8.03125 256.832 8.64205V9.06818H251.787V8.19886H255.809C255.809 7.82955 255.735 7.5 255.588 7.21023C255.443 6.92045 255.235 6.69176 254.966 6.52415C254.699 6.35653 254.383 6.27273 254.02 6.27273C253.619 6.27273 253.272 6.37216 252.98 6.57102C252.69 6.76705 252.467 7.02273 252.311 7.33807C252.154 7.65341 252.076 7.99148 252.076 8.35227V8.93182C252.076 9.42614 252.162 9.84517 252.332 10.1889C252.505 10.5298 252.745 10.7898 253.052 10.9688C253.359 11.1449 253.716 11.233 254.122 11.233C254.386 11.233 254.625 11.196 254.838 11.1222C255.054 11.0455 255.24 10.9318 255.396 10.7812C255.552 10.6278 255.673 10.4375 255.758 10.2102L256.73 10.483C256.627 10.8125 256.456 11.1023 256.214 11.3523C255.973 11.5994 255.674 11.7926 255.319 11.9318C254.964 12.0682 254.565 12.1364 254.122 12.1364Z" fill="black"/>
<path d="M124 328C126.213 321.385 133.682 310 146.131 310C155.721 310 162.361 313.692 169 328" stroke="black" stroke-width="6"/>
<path d="M324 328C326.213 321.385 333.682 310 346.131 310C355.721 310 362.361 313.692 369 328" stroke="black" stroke-width="6"/>
<path d="M251 335.487C243.333 333.987 227.2 335.087 224 351.487C225.5 346.82 233 337.087 251 335.487Z" fill="white"/>
</svg>
